<?xml version="1.0" standalone="no"?><!DOCTYPE svg PUBLIC "-//W3C//DTD SVG 1.1//EN" "http://www.w3.org/Graphics/SVG/1.1/DTD/svg11.dtd"><svg t="1500775083079" class="icon" style="" viewBox="0 0 1024 1024" version="1.1" xmlns="http://www.w3.org/2000/svg" p-id="1440" xmlns:xlink="http://www.w3.org/1999/xlink" width="200" height="200"><defs><style type="text/css"></style></defs><path d="M236.945219 372.325745a25.287653 25.287653 0 1 1-46.636024-19.75995 308.153561 308.153561 0 0 1 27.130221-50.765916l0.127074-0.190611h-0.127074c10.674185-16.011278 23.063864-30.94243 36.787817-44.666382l0.063537-0.19061h-0.063537c13.596879-13.723952 28.528031-25.923021 44.475771-36.914891 15.439446-10.483575 32.403776-19.696413 50.638843-27.511441a25.160579 25.160579 0 0 1 33.102682 13.723952 25.5418 25.5418 0 0 1-13.596879 33.229755c-14.422857 6.353682-28.400957 13.914563-41.807225 23.190938a244.553207 244.553207 0 0 0-36.914891 30.497672 252.495309 252.495309 0 0 0-30.497672 37.296112c-8.895154 13.279195-16.646646 27.384368-22.682643 42.061372z m583.58566 394.690705l182.986032 184.129695a42.633204 42.633204 0 0 1 0.254147 60.296439 41.934299 41.934299 0 0 1-59.66107 0l-183.367253-184.447379a457.338006 457.338006 0 0 1-471.570253 72.304897h-0.317684a462.548025 462.548025 0 0 1-149.819814-100.896465h-0.063537a466.804992 466.804992 0 0 1-100.197559-151.027013l-0.825979-2.096715a468.83817 468.83817 0 0 1 0.825979-353.2647 466.296697 466.296697 0 0 1 100.197559-151.217623A459.0535 459.0535 0 0 1 641.992425 39.837584l0.063536 0.19061 0.127074-0.19061a463.183393 463.183393 0 0 1 150.010424 100.832928l1.906105 2.096715a467.503897 467.503897 0 0 1 98.100844 148.930298l0.825979 2.287325a466.296697 466.296697 0 0 1-72.495508 473.0316zM609.715722 118.432626a374.295387 374.295387 0 0 0-144.228574-28.464494 374.994292 374.994292 0 0 0-266.664019 111.189429 379.441869 379.441869 0 0 0-81.962494 122.943741 385.477866 385.477866 0 0 0-0.762442 288.584221l0.825979 2.096714a380.521995 380.521995 0 0 0 81.962494 123.197888l-0.063537 0.19061h0.063537a381.729194 381.729194 0 0 0 122.435445 82.597862c44.221624 18.298603 92.954363 28.591567 144.228574 28.591567a376.773322 376.773322 0 0 0 144.228574-28.591567 376.137954 376.137954 0 0 0 121.863614-81.962493l0.635368-0.635369 0.063537-0.19061a375.947344 375.947344 0 0 0 81.771883-123.197888 378.044059 378.044059 0 0 0 28.464494-145.054552 381.2209 381.2209 0 0 0-27.447905-143.275521l-1.080126-2.096715a376.646249 376.646249 0 0 0-79.802242-121.291783l-2.033178-1.906105a375.121365 375.121365 0 0 0-122.498982-82.534324v-0.190611z m103.946232 351.295059c0-14.16871 11.436627-25.732411 25.414726-25.732411 13.9781 0 25.35119 11.563701 25.35119 25.732411a303.070615 303.070615 0 0 1-22.74618 115.319322l-0.444758 0.889516a300.274995 300.274995 0 0 1-161.25644 161.764735 296.58986 296.58986 0 0 1-114.493344 22.936791 25.605337 25.605337 0 0 1 0-51.147138 246.840533 246.840533 0 0 0 175.488687-73.130876c23.508622-23.762769 41.426004-50.956527 53.30739-79.802241l0.571831-1.270737c12.389679-30.370598 18.806898-62.964985 18.806898-95.559372z" fill="#3E3A39" p-id="1441"></path></svg>